<?xml version="1.0" encoding="UTF-8"?><svg id="_레이어_2" xmlns="http://www.w3.org/2000/svg" viewBox="0 0 546.89 382.43"><defs><style>.cls-1,.cls-2{fill:#fff;}.cls-2{font-family:Pretendard-Bold-KSCpc-EUC-H, Pretendard;font-size:18px;}</style></defs><g id="_레이어_1-2"><g id="pAXKqg.tif"><path class="cls-1" d="M546.89,352c-2.36,.79-4.71,1.65-7.1,2.36-1.82,.54-4.03,2.56-4.91-1.28-.23-1.01-1.72-.75-2.69-.77-1.66-.04-3.33-.02-4.99-.02-157.84,0-315.67,0-473.51,0-1.83,0-3.66-.11-5.49,0-3.27,.2-4.5-1.46-4.43-4.52,.04-1.83-.02-3.67-.02-5.5,0-107.48,.01-214.96-.08-322.44,0-2.97,1.78-6.78-2.47-8.77-.27-.13-.14-1.57,.11-2.3,1.02-2.98,1.67-6.12,3.51-8.77h1c.79,2.37,1.62,4.73,2.34,7.12,.56,1.85,2.35,3.76-1.25,5.02-1.68,.59-.78,3.35-.79,5.11-.04,36.83-.03,73.66-.03,110.5,0,71.66,0,143.33,0,214.99q0,7.19,7.1,7.21c35.76,0,71.53-.07,107.29,.1,4.68,.02,6.94-1.24,8.54-5.98,9.46-28.02,24.36-52.86,44.98-74.1,2.61-2.69,3.4-5.38,3.06-8.94-2.37-25.18-4.59-50.38-6.93-75.56-2.86-30.82-5.8-61.63-8.66-92.45-2.1-22.7-4.1-45.41-6.19-68.12-.14-1.54,1.01-4.67-2.86-2.81-.91,.44-1.21-.96-1.06-1.73,.91-4.68,1.25-9.49,3.62-15.57,2.5,6.39,4.49,11.47,6.44,16.46-1.99,1.54-2.54-.81-3.8-.67-.13,.24-.4,.51-.38,.75,2.18,24.53,4.35,49.07,6.59,73.6,2.17,23.7,4.46,47.38,6.62,71.08,1.84,20.22,3.56,40.45,5.35,60.67,.98,11.1,2,22.21,3,33.31,.09,.97-.15,2.21,.9,2.68,1.55,.7,2.43-.75,3.35-1.57,9.75-8.63,20.2-16.3,31.44-22.87,31.49-18.39,65.67-29.7,100.8-38.46,14.19-3.54,28.46-6.77,42.69-10.13,2.72-.64,5.26-1.07,6.77-4.19,1.27-2.64,4.11-2.66,6.5-1.08,2.27,1.49,2.76,3.78,1.52,6.14-1.23,2.35-3.75,3.75-5.81,2.22-3.6-2.68-6.91-1.3-10.4-.53-33.61,7.46-67.1,15.33-99.29,27.87-33.11,12.9-63.35,30.23-87.21,57.24-17.18,19.44-30.14,41.41-38.81,65.88-2.19,6.19-1.74,6.75,4.94,6.75,117.77,0,235.55,.01,353.32-.04,2.11,0,4.7,1.03,5.92-2.18,.52-1.35,2.09-.49,3.11-.1,2.79,1.06,5.53,2.24,8.29,3.37v1Z"/><text class="cls-2" transform="translate(117.25 269.86)"><tspan x="0" y="0">고체</tspan></text><text class="cls-2" transform="translate(276.25 299.86)"><tspan x="0" y="0">기체</tspan></text><text class="cls-2" transform="translate(420.25 170.86)"><tspan x="0" y="0">초임계유체</tspan></text><text class="cls-2" transform="translate(257.25 179.86)"><tspan x="0" y="0">액체</tspan></text><text class="cls-2" transform="translate(0 26.86)"><tspan x="0" y="0">압력</tspan></text><text class="cls-2" transform="translate(502 376.86)"><tspan x="0" y="0">온도</tspan></text></g></g></svg>